<svg id="Capa_1" enable-background="new 0 0 512 512" height="512" viewBox="0 0 512 512" width="512" xmlns="http://www.w3.org/2000/svg"><g><g><path d="m462.689 130.304h-413.378c-23.092 0-41.811 18.72-41.811 41.811v263.07c0 23.092 18.72 41.811 41.811 41.811h413.377c23.092 0 41.811-18.72 41.811-41.811v-263.07c.001-23.091-18.719-41.811-41.81-41.811z" fill="#f9f6f9"/><path d="m76.68 476.995h-27.37c-23.09 0-41.81-18.72-41.81-41.81v-263.07c0-23.09 18.72-41.81 41.81-41.81h27.37c-23.09 0-41.81 18.72-41.81 41.81v263.07c0 23.09 18.72 41.81 41.81 41.81z" fill="#dfeaef"/><circle cx="404.307" cy="127.006" fill="#da4a54" r="92.003"/><path d="m421.934 217.307c-5.7 1.12-11.6 1.7-17.63 1.7-50.81 0-92-41.19-92-92s41.19-92 92-92c6.03 0 11.93.58 17.63 1.7-42.38 8.21-74.38 45.52-74.38 90.3s32 82.09 74.38 90.3z" fill="#c32430"/></g><g><path d="m502.509 143.057c.851-5.226 1.301-10.584 1.301-16.047 0-16.442-4.097-32.735-11.847-47.118-1.965-3.646-6.514-5.008-10.16-3.044-3.646 1.965-5.01 6.514-3.045 10.161 6.576 12.202 10.052 26.035 10.052 40.001 0 46.593-37.906 84.5-84.5 84.5-46.599 0-84.51-37.907-84.51-84.5 0-46.599 37.911-84.51 84.51-84.51 21.472 0 41.929 8.059 57.603 22.692 3.027 2.828 7.773 2.665 10.601-.364 2.826-3.028 2.663-7.773-.364-10.6-18.462-17.236-42.555-26.728-67.84-26.728-53.463 0-97.206 42.381-99.415 95.31h-255.585c-27.189 0-49.31 22.121-49.31 49.31v263.07c0 20.396 12.82 38.941 31.9 46.146.873.329 1.768.485 2.648.485 3.03 0 5.884-1.85 7.018-4.853 1.463-3.875-.492-8.203-4.367-9.666-13.278-5.012-22.199-17.918-22.199-32.112v-263.07c0-7.438 2.386-14.324 6.423-19.951l200.017 172.024c10.013 8.61 22.287 12.915 34.56 12.915s24.548-4.305 34.561-12.916l113.581-97.685c.056 0 .112.002.168.002 41.404 0 76.978-25.424 91.943-61.478.489 2.316.748 4.69.748 7.088v263.07c0 18.918-15.392 34.31-34.31 34.31h-398.381c-4.142 0-7.5 3.358-7.5 7.5s3.358 7.5 7.5 7.5h398.38c27.189 0 49.31-22.121 49.31-49.31v-263.069c0-10.477-3.353-20.661-9.491-29.063zm-221.729 169.763c-14.359 12.346-35.202 12.347-49.56 0l-198.5-170.719c4.92-2.73 10.575-4.291 16.59-4.291h256.078c4.654 42.917 36.709 77.729 78.262 86.537z"/><path d="m439.651 99.162c0-19.489-15.855-35.344-35.344-35.344-16.852 0-31.438 11.987-34.682 28.501-.799 4.064 1.85 8.007 5.913 8.805 4.065.798 8.007-1.849 8.806-5.914 1.866-9.499 10.262-16.393 19.963-16.393 11.218 0 20.344 9.126 20.344 20.344s-9.126 20.344-20.344 20.344c-4.143 0-7.5 3.358-7.5 7.5s3.357 7.5 7.5 7.5c11.218 0 20.344 9.126 20.344 20.344s-9.126 20.344-20.344 20.344c-10.094 0-18.756-7.522-20.147-17.495-.131-.938-.197-1.897-.197-2.85 0-4.142-3.357-7.5-7.5-7.5s-7.5 3.358-7.5 7.5c0 1.642.114 3.297.341 4.92 2.421 17.345 17.469 30.424 35.004 30.424 19.488 0 35.344-15.855 35.344-35.344 0-11.294-5.326-21.369-13.598-27.844 8.271-6.473 13.597-16.547 13.597-27.842z"/></g></g></svg>